# xmcd CD database file
#
# Track frame offsets:
#	150
#	18867
#	28297
#	37955
#	52340
#	74727
#	91882
#	105025
#	116677
#	131447
#
# Disc length: 1972 seconds
#
# Revision: 1
# Processed by: cddbd v1.5.2PL0 Copyright (c) Steve Scherf et al.
# Submitted via: jetAudio 7
#
DISCID=8207b20a
DTITLE=Floyd Cramer - We Wish You A Merry Christmas
DYEAR=1999
DGENRE=Christmas
TTITLE0=Deck The Halls - O Come, All Ye Faithful - The Little Drummer Boy
TTITLE1=Up On The Housetop - Jingle Bells
TTITLE2=Jingle Bell Rock
TTITLE3=What Child Is This
TTITLE4=Silent Night - Away In A Manger - It Came Upon A Midnight Clear - 
TTITLE4=The First Noël
TTITLE5=Joy To The World - O Little Town Of Bethlehem - Hark! The Herald 
TTITLE5=Angels Sing
TTITLE6=Silver Bells - Winter Wonderland
TTITLE7=I'll Be Home For Christmas
TTITLE8=Have Yourself A Merry Little Christmas
TTITLE9=Silent Night
EXTD=
EXTT0=
EXTT1=
EXTT2=
EXTT3=
EXTT4=
EXTT5=
EXTT6=
EXTT7=
EXTT8=
EXTT9=
PLAYORDER=
